<?xml version="1.0" encoding="UTF-8" standalone="no"?>
<!-- Created with Inkscape (http://www.inkscape.org/) -->

<svg
   width="160mm"
   height="60mm"
   viewBox="0 0 160 60"
   version="1.1"
   id="svg5069"
   xml:space="preserve"
   inkscape:version="1.2.1 (9c6d41e410, 2022-07-14)"
   sodipodi:docname="DNUM-light.svg"
   xmlns:inkscape="http://www.inkscape.org/namespaces/inkscape"
   xmlns:sodipodi="http://sodipodi.sourceforge.net/DTD/sodipodi-0.dtd"
   xmlns="http://www.w3.org/2000/svg"
   xmlns:svg="http://www.w3.org/2000/svg"><sodipodi:namedview
     id="namedview5071"
     pagecolor="#ffffff"
     bordercolor="#000000"
     borderopacity="0.25"
     inkscape:showpageshadow="2"
     inkscape:pageopacity="0.0"
     inkscape:pagecheckerboard="true"
     inkscape:deskcolor="#d1d1d1"
     inkscape:document-units="mm"
     showgrid="false"
     inkscape:zoom="1.4324916"
     inkscape:cx="313.78893"
     inkscape:cy="87.60959"
     inkscape:window-width="1920"
     inkscape:window-height="991"
     inkscape:window-x="-9"
     inkscape:window-y="-9"
     inkscape:window-maximized="1"
     inkscape:current-layer="text5292" /><defs
     id="defs5066"><rect
   x="181.50194"
   y="293.19543"
   width="48.728264"
   height="19.484213"
   id="rect5294" /><rect
   x="181.50194"
   y="293.19543"
   width="48.728264"
   height="19.484213"
   id="rect5294-7" />
	
</defs><g
     inkscape:label="Layer 1"
     inkscape:groupmode="layer"
     id="layer1"><g
       aria-label="DNUM"
       transform="matrix(3.0720115,0,0,3.0720115,-532.65367,-876.11713)"
       id="text5292"
       style="font-style:italic;font-weight:bold;font-stretch:condensed;font-size:16px;font-family:'Helvetica Condensed';-inkscape-font-specification:'Helvetica Condensed,  Bold Italic Condensed';text-align:center;letter-spacing:-0.539248px;text-anchor:middle;white-space:pre;shape-inside:url(#rect5294);fill:#616161;stroke-width:0.113932;stroke-linecap:square"><g
         id="g8892"><path
           id="path6596"
           style="fill:#ffffff;fill-opacity:1;stroke-width:0.113932"
           d="M 178.08398 288.18505 L 175.01688 302.63606 L 180.03143 302.63606 C 181.15414 302.63606 182.06669 302.3569 182.76916 301.79868 C 183.47791 301.22164 184.05496 300.44694 184.50028 299.47476 C 184.9456 298.50258 185.36592 297.09135 185.76107 295.24108 C 186.1562 293.37199 186.34736 292.01096 186.33486 291.15795 C 186.32231 290.29867 186.11853 289.64011 185.72339 289.18224 C 185.18398 288.5174 184.48781 288.18505 183.63481 288.18505 L 178.08398 288.18505 z M 181.09137 289.72524 C 181.28534 289.7246 181.47721 289.73616 181.62091 289.76679 C 182.44764 289.94305 183.09146 291.23616 183.26002 292.4263 C 183.39126 293.35313 183.39744 294.73448 183.12797 295.99856 C 182.84153 297.34227 182.28946 298.52138 181.79165 299.31411 C 181.15238 300.33205 180.03727 301.25025 179.21053 301.074 L 179.21036 301.07383 C 178.79232 300.98471 178.06765 300.58152 178.00425 300.48372 C 178.00425 300.48372 178.12396 299.92214 178.15026 299.79891 L 178.55163 297.91572 C 178.58148 297.77573 179.07687 297.7039 179.35873 297.7465 C 179.73895 297.80405 180.2084 298.16906 180.2084 298.16906 C 180.47005 298.2109 180.60238 298.01895 180.91137 297.70293 C 181.29115 297.31459 181.55738 296.4575 181.74152 295.703 C 181.88112 294.93899 181.98759 294.04785 181.79922 293.53838 C 181.64597 293.12381 181.60334 292.89449 181.34739 292.82599 C 181.34739 292.82599 180.76996 292.96788 180.39932 292.86535 C 180.12455 292.78933 179.7017 292.52166 179.7315 292.38172 L 180.13303 290.49854 C 180.1593 290.37531 180.27888 289.81372 180.27888 289.81372 C 180.34307 289.77212 180.72104 289.72647 181.09137 289.72524 z " /><path
           d="m 189.1195,288.18498 h 2.82247 l 1.7123,9.14479 v 0 l 1.93809,-9.14479 h 2.70016 l -3.06708,14.45102 h -2.82246 l -1.75934,-8.91898 v 0 l -1.89105,8.91898 h -2.70016 z m 4.84524,-1.20425 z m -3.3211,15.65527 z m -2.77543,-14.75208 z"
           id="path6598"
           style="fill:#ffffff;fill-opacity:1;stroke-width:0.113932" /><path
           d="m 200.23979,288.18498 h 2.70016 l -2.10744,9.91626 q -0.31047,1.45827 0.01,2.0604 0.31048,0.59272 1.27011,0.59272 1.03491,0 1.5994,-0.55509 0.56449,-0.55509 0.89377,-2.09803 l 2.10744,-9.91626 h 2.70016 l -2.15448,10.14205 q -0.50805,2.38029 -1.74993,3.49986 -1.24188,1.11018 -3.7821,1.11018 -2.5308,0 -3.34932,-1.06313 -0.81852,-1.07254 -0.29166,-3.54691 z m 4.84523,-1.20425 z m -1.78755,15.65527 z m -4.30897,-14.75208 z"
           id="path6600"
           style="fill:#ffffff;fill-opacity:1;stroke-width:0.113932" /><path
           d="m 211.36008,288.18498 h 4.29955 l 0.0847,8.86254 v 0 l 3.80092,-8.86254 h 4.29955 l -3.06709,14.45102 h -2.70014 l 2.6437,-12.4753 v 0 l -5.36269,12.4753 h -1.64643 l -0.0753,-12.4753 v 0 l -2.64372,12.4753 h -2.70015 z"
           id="path6602"
           style="fill:#ffffff;fill-opacity:1;stroke-width:0.113932" /></g></g></g><style
     type="text/css"
     id="style5226">
	.st0{fill:#000000;}
</style><style
     type="text/css"
     id="style7028">
	.st0{fill:#000000;}
</style></svg>
